<?xml version="1.0" encoding="UTF-8"?>
<svg version="1.1" xmlns="http://www.w3.org/2000/svg" width="512" height="512">
<path d="M0 0 C1.68503632 0.46865479 1.68503632 0.46865479 3.40411377 0.94677734 C15.72836851 4.40751163 27.96426935 8.15679499 40.18359375 11.96875 C41.36269318 12.33524658 42.5417926 12.70174316 43.75662231 13.0793457 C91.55086521 27.93876228 138.9546454 43.74136159 185.74609375 61.53125 C186.58861694 61.851008 187.43114014 62.17076599 188.29919434 62.50021362 C197.35300987 65.94471654 206.36336733 69.49412751 215.3203125 73.18359375 C216.11073441 73.50292374 216.90115631 73.82225372 217.7155304 74.15126038 C224.62962083 77.0371567 229.45985364 80.46661308 232.98046875 87.20703125 C235.28728898 93.89113742 235.24829113 101.95127246 232.37109375 108.46875 C228.2572348 114.92645419 222.34232934 118.70294483 215.30859375 121.46875 C214.51702881 121.79077393 213.72546387 122.11279785 212.90991211 122.44458008 C209.9266889 123.64315036 206.93206354 124.8088283 203.93359375 125.96875 C202.99238678 126.33320221 202.99238678 126.33320221 202.03216553 126.70501709 C183.68412534 133.80095343 165.240155 140.63848881 146.74609375 147.34375 C145.95743927 147.63059662 145.16878479 147.91744324 144.35623169 148.21298218 C142.13982431 149.01802538 139.92181819 149.81846887 137.703125 150.6171875 C137.04346741 150.85708908 136.38380981 151.09699066 135.7041626 151.34416199 C131.16407249 152.96875 131.16407249 152.96875 128.93359375 152.96875 C128.9424762 154.15590103 128.95135864 155.34305206 128.96051025 156.56617737 C129.04165485 167.76292964 129.10158751 178.95962212 129.14084244 190.15660191 C129.16170239 195.91287571 129.18999145 201.66891182 129.23535156 207.42504883 C129.27886535 212.98176848 129.30274284 218.53825974 129.31310272 224.09513664 C129.3204841 226.21340466 129.33489823 228.33166042 129.35651398 230.44983101 C129.38562102 233.42068458 129.38954663 236.39059866 129.38769531 239.36157227 C129.40207642 240.23407623 129.41645752 241.1065802 129.43127441 242.00552368 C129.39295529 247.70170379 128.75892821 251.4843637 124.93359375 255.96875 C120.31359375 258.27875 115.69359375 260.58875 110.93359375 262.96875 C110.93359375 276.16875 110.93359375 289.36875 110.93359375 302.96875 C113.57359375 304.28875 116.21359375 305.60875 118.93359375 306.96875 C125.87245414 313.11910352 129.62982324 318.79880294 130.93359375 327.96875 C131.01568884 329.93859465 131.05150036 331.91077448 131.04711914 333.88232422 C131.04699829 335.03885498 131.04687744 336.19538574 131.04675293 337.38696289 C131.04163696 338.58699951 131.036521 339.78703613 131.03125 341.0234375 C131.03024292 342.1379126 131.02923584 343.2523877 131.02819824 344.40063477 C131.02298152 348.54835037 131.00902028 352.69605126 130.99609375 356.84375 C130.97546875 366.125 130.95484375 375.40625 130.93359375 384.96875 C111.79359375 384.96875 92.65359375 384.96875 72.93359375 384.96875 C72.87171875 371.10875 72.87171875 371.10875 72.80859375 356.96875 C72.79038574 354.06578125 72.77217773 351.1628125 72.75341797 348.171875 C72.74757315 345.85416854 72.74247757 343.53646003 72.73828125 341.21875 C72.72804932 340.02894531 72.71781738 338.83914063 72.70727539 337.61328125 C72.70503861 326.91251125 74.01324187 318.5365166 81.30859375 310.28125 C84.91317763 307.10578324 88.35406992 304.49525794 92.93359375 302.96875 C92.93359375 292.07875 92.93359375 281.18875 92.93359375 269.96875 C88.89109375 271.53625 84.84859375 273.10375 80.68359375 274.71875 C56.40981764 283.98562592 31.67615815 291.88354206 6.87109375 299.59375 C6.04643616 299.85195526 5.22177856 300.11016052 4.37213135 300.37619019 C-0.13929951 301.78529824 -4.65897656 303.14776963 -9.20782471 304.43127441 C-10.80148388 304.89213819 -12.38088912 305.40180315 -13.95654297 305.92089844 C-23.20493478 308.45271006 -32.22720329 304.70067049 -41.06640625 301.96875 C-42.55780465 301.52243107 -44.04949436 301.07708415 -45.54150391 300.6328125 C-50.00192953 299.29006573 -54.44170118 297.88608248 -58.87890625 296.46875 C-59.68355316 296.21275024 -60.48820007 295.95675049 -61.31723022 295.69299316 C-87.60561566 287.31992853 -113.65659125 278.45787554 -139.37890625 268.46875 C-140.257211 268.12936401 -141.13551575 267.78997803 -142.04043579 267.44030762 C-166.32898159 258.02588076 -166.32898159 258.02588076 -170.19962788 251.05933189 C-171.76980464 247.27222412 -171.63590254 243.50249149 -171.61230469 239.45336914 C-171.62264236 238.52575775 -171.63298004 237.59814636 -171.64363098 236.64242554 C-171.6729766 233.59607351 -171.67455643 230.55038829 -171.67578125 227.50390625 C-171.69076843 225.3839746 -171.70749671 223.2640546 -171.72589111 221.14414978 C-171.76951617 215.57932997 -171.78955312 210.01466766 -171.80462646 204.44970703 C-171.8242149 198.76520493 -171.86618303 193.08087249 -171.90625 187.39648438 C-171.98149976 176.25395864 -172.03182304 165.11147098 -172.06640625 153.96875 C-173.7740641 153.36276474 -173.7740641 153.36276474 -175.51622009 152.74453735 C-217.88595971 137.70042306 -217.88595971 137.70042306 -236.82104492 130.42138672 C-239.75053229 129.29707081 -242.68473143 128.18561819 -245.61914062 127.07421875 C-247.54064826 126.33928291 -249.4618847 125.60363754 -251.3828125 124.8671875 C-252.65760216 124.38588882 -252.65760216 124.38588882 -253.95814514 123.89486694 C-263.48443839 120.20642735 -272.47643526 116.24772566 -277.19921875 106.671875 C-279.39531891 99.82637361 -279.3336891 91.46672351 -276.12890625 84.96875 C-269.48440952 75.4589026 -257.78073844 72.19709031 -247.37890625 68.28125 C-245.76487094 67.66492084 -244.15110515 67.04788542 -242.53759766 66.43017578 C-237.72064899 64.59150027 -232.89499314 62.77660709 -228.06640625 60.96875 C-227.37798645 60.71055481 -226.68956665 60.45235962 -225.98028564 60.18634033 C-206.15380219 52.75561955 -186.19198555 45.69657443 -166.20330811 38.71618652 C-164.11012721 37.98404253 -162.01804236 37.24885145 -159.92626953 36.51269531 C-125.74588785 24.49412542 -91.11734336 13.87270247 -56.37890625 3.59375 C-54.95519211 3.17199997 -54.95519211 3.17199997 -53.50271606 2.74172974 C-50.83341691 1.95240531 -48.16307989 1.16672689 -45.4921875 0.3828125 C-44.70801453 0.15126968 -43.92384155 -0.08027313 -43.11590576 -0.3188324 C-28.40157612 -4.61439901 -14.67677607 -4.20202105 0 0 Z " fill="#365E7C" transform="translate(278.06640625,65.03125)"/>
<path d="M0 0 C-0.433125 0.8353125 -0.433125 0.8353125 -0.875 1.6875 C-4.19439403 8.51069884 -5.25690987 13.64577466 -2.875 21.0625 C0.23972322 28.19612 4.68012193 32.38390695 11.82373047 35.37661743 C12.68627441 35.71381805 13.54881836 36.05101868 14.4375 36.3984375 C15.35418457 36.77342377 16.27086914 37.14841003 17.21533203 37.53475952 C20.13370449 38.71674857 23.0634395 39.86400709 26 41 C26.94214355 41.36532837 27.88428711 41.73065674 28.85498047 42.10705566 C34.57849576 44.31104871 40.32422366 46.45034055 46.08398438 48.55761719 C49.00121807 49.62544587 51.91484364 50.70269111 54.828125 51.78125 C65.77974664 55.81999286 76.78269411 59.65142851 87.86914062 63.30273438 C92.97316618 64.98453913 98.05868813 66.71757846 103.140625 68.46484375 C104.38002838 68.89057426 104.38002838 68.89057426 105.64447021 69.3249054 C107.32181303 69.90112091 108.99911996 70.47744087 110.6763916 71.05386353 C126.72559095 76.56428148 142.7988221 81.95078278 159 87 C160.74627686 87.54648193 160.74627686 87.54648193 162.52783203 88.10400391 C176.87061712 92.59047069 191.23190487 97.0092099 205.63623047 101.29394531 C208.10436487 102.03117364 210.56998646 102.77635896 213.03515625 103.5234375 C221.98212739 106.23100586 230.94185217 108.85488409 239.96289062 111.30566406 C244.35471889 112.50757558 248.65294979 113.81818647 252.8828125 115.51953125 C259.24673242 116.96374186 264.9662612 115.77272407 271.0625 113.9375 C271.83505127 113.71344482 272.60760254 113.48938965 273.40356445 113.25854492 C275.93950103 112.51794388 278.46984395 111.76009588 281 111 C281.84981445 110.74831055 282.69962891 110.49662109 283.57519531 110.23730469 C299.66582115 105.46948973 315.61874797 100.27440881 331.58349609 95.10546875 C335.96951617 93.68629633 340.35607342 92.26951425 344.75 90.875 C345.92046875 90.50117188 347.0909375 90.12734375 348.296875 89.7421875 C351 89 351 89 354 89 C354 95.6 354 102.2 354 109 C351.03 109.99 348.06 110.98 345 112 C343.30799857 112.57376867 341.61648217 113.14897292 339.92578125 113.7265625 C327.20680495 118.03910286 314.41284707 122.02802598 301.53808594 125.84301758 C294.04217591 128.06894313 286.62504307 130.42343375 279.2265625 132.953125 C274.4385283 134.50662762 269.58529003 135.76773212 264.7109375 137.01953125 C259.87050255 138.29842511 255.0941603 139.77078017 250.31640625 141.265625 C247 142 247 142 239 142 C239.33 171.37 239.66 200.74 240 231 C223.86584536 227.54268115 223.86584536 227.54268115 217.6484375 225.609375 C216.5602774 225.27800537 216.5602774 225.27800537 215.45013428 224.93994141 C213.08933685 224.21755524 210.73191661 223.48494291 208.375 222.75 C207.54385681 222.49222778 206.71271362 222.23445557 205.85638428 221.96887207 C177.02124632 213.01039582 148.4576491 203.31775349 120.3125 192.375 C119.44473938 192.03915894 118.57697876 191.70331787 117.68292236 191.3572998 C93.73501032 182.05539343 93.73501032 182.05539343 89.86631489 175.0904274 C88.29683954 171.30326604 88.43050472 167.5335673 88.45410156 163.48461914 C88.44376389 162.55700775 88.43342621 161.62939636 88.42277527 160.67367554 C88.39342965 157.62732351 88.39184982 154.58163829 88.390625 151.53515625 C88.37563782 149.4152246 88.35890954 147.2953046 88.34051514 145.17539978 C88.29689008 139.61057997 88.27685313 134.04591766 88.26177979 128.48095703 C88.24219135 122.79645493 88.20022322 117.11212249 88.16015625 111.42773438 C88.08490649 100.28520864 88.03458321 89.14272098 88 78 C86.86156143 77.59600983 85.72312286 77.19201965 84.55018616 76.77578735 C42.18044654 61.73167306 42.18044654 61.73167306 23.24536133 54.45263672 C20.31587396 53.32832081 17.38167482 52.21686819 14.44726562 51.10546875 C12.52575799 50.37053291 10.60452155 49.63488754 8.68359375 48.8984375 C7.83373398 48.57757172 6.98387421 48.25670593 6.10826111 47.92611694 C-3.41803214 44.23767735 -12.41002901 40.27897566 -17.1328125 30.703125 C-19.32891266 23.85762361 -19.26728285 15.49797351 -16.0625 9 C-12.63885511 3.77649608 -6.58590994 -2.47905 0 0 Z " fill="#2B4D66" transform="translate(18,141)"/>
<path d="M0 0 C0 27.72 0 55.44 0 84 C-5.28430482 86.64215241 -10.19539384 88.94366792 -15.71484375 90.84765625 C-16.4348204 91.10064987 -17.15479706 91.35364349 -17.89659119 91.61430359 C-20.24156665 92.43621419 -22.58930153 93.24984738 -24.9375 94.0625 C-26.59329905 94.63889016 -28.2490602 95.21538923 -29.90478516 95.79199219 C-34.93268085 97.53921692 -39.96566002 99.27144569 -45 101 C-45.7498114 101.25795349 -46.4996228 101.51590698 -47.27215576 101.78167725 C-63.14758155 107.23997768 -79.08253669 112.4450339 -95.1875 117.1875 C-96.17855743 117.48291687 -96.17855743 117.48291687 -97.18963623 117.78430176 C-99.05475173 118.33790619 -100.92379548 118.87822347 -102.79296875 119.41796875 C-103.8502417 119.72500732 -104.90751465 120.0320459 -105.99682617 120.34838867 C-109 121 -109 121 -115 121 C-115 91.96 -115 62.92 -115 33 C-109.72 32.01 -104.44 31.02 -99 30 C-95.55424779 29.06417947 -92.19959202 28.09998166 -88.8125 27 C-86.84172653 26.37966256 -84.87032394 25.76132171 -82.8984375 25.14453125 C-81.8165918 24.80502441 -80.73474609 24.46551758 -79.62011719 24.11572266 C-75.5404863 22.85837756 -71.44849219 21.64872498 -67.3515625 20.44921875 C-49.76140119 15.29329133 -32.29893494 9.90237996 -14.9453125 3.99609375 C-3.1556515 0 -3.1556515 0 0 0 Z " fill="#355D7C" transform="translate(372,250)"/>
<path d="M0 0 C4.262917 1.54457478 8.29928191 3.52043081 12.375 5.5 C13.60560437 6.08571956 14.83673772 6.67032883 16.06835938 7.25390625 C20.05525184 9.14940804 24.02821967 11.07308022 28 13 C29.36096433 13.65893322 30.72196702 14.31778722 32.08300781 14.9765625 C37.6333124 17.66470119 43.18162772 20.35687446 48.72509766 23.05908203 C57.35638681 27.26239381 66.0278343 31.36263848 74.75 35.375 C85.38387047 40.28444576 95.97951119 45.27094425 106.53405762 50.34869385 C108.20898562 51.15276118 109.8856477 51.95322704 111.56408691 52.74993896 C113.91356035 53.86627667 116.25622597 54.99581541 118.59765625 56.12890625 C119.30255692 56.46069382 120.00745758 56.79248138 120.73371887 57.13432312 C124.46171144 58.95818279 126.90400977 60.40133562 129 64 C129.38476086 66.81917953 129.38476086 66.81917953 129.39872742 70.13763428 C129.41126556 71.39684189 129.42380371 72.6560495 129.4367218 73.95341492 C129.43554777 75.34622218 129.43408863 76.73902923 129.43237305 78.13183594 C129.44139039 79.60039597 129.45171754 81.06894846 129.46325684 82.53749084 C129.4908565 86.5226839 129.50011534 90.50773426 129.50611091 94.49301052 C129.51548689 98.65842288 129.54168963 102.82372832 129.56611633 106.98907471 C129.60980644 114.87605624 129.63833795 122.76301705 129.66143972 130.65008283 C129.68847795 139.62950993 129.73239029 148.60882962 129.77772844 157.58818007 C129.87061066 176.05873003 129.942275 194.52930839 130 213 C130.81839355 213.39070679 130.81839355 213.39070679 131.65332031 213.78930664 C132.37100586 214.13856201 133.08869141 214.48781738 133.828125 214.84765625 C134.5387207 215.19062744 135.24931641 215.53359863 135.98144531 215.88696289 C141.96570868 219.18670366 146.94690736 225.52486169 149 232 C149.78370986 236.02252048 150.12262494 239.81877493 150.11352539 243.91357422 C150.11340454 245.07010498 150.11328369 246.22663574 150.11315918 247.41821289 C150.10804321 248.61824951 150.10292725 249.81828613 150.09765625 251.0546875 C150.09664917 252.1691626 150.09564209 253.2836377 150.09460449 254.43188477 C150.08938777 258.57960037 150.07542653 262.72730126 150.0625 266.875 C150.041875 276.15625 150.02125 285.4375 150 295 C130.86 295 111.72 295 92 295 C91.95875 285.76 91.9175 276.52 91.875 267 C91.85679199 264.09703125 91.83858398 261.1940625 91.81982422 258.203125 C91.8139794 255.88541854 91.80888382 253.56771003 91.8046875 251.25 C91.79445557 250.06019531 91.78422363 248.87039063 91.77368164 247.64453125 C91.77144486 236.94376125 93.07964812 228.5677666 100.375 220.3125 C103.97958388 217.13703324 107.42047617 214.52650794 112 213 C112 166.14 112 119.28 112 71 C100.78 65.72 89.56 60.44 78 55 C62.125 47.3125 62.125 47.3125 54.4609375 43.58984375 C47.25855236 40.10841025 40.01306988 36.72827875 32.75 33.375 C28.16525987 31.25302317 23.58182906 29.12825546 19 27 C18.38139099 26.7128009 17.76278198 26.42560181 17.12542725 26.12969971 C13.32597475 24.36383197 9.53269929 22.58559466 5.74645996 20.79156494 C3.98052858 19.9578151 2.20955373 19.13477419 0.43847656 18.31201172 C-0.62532227 17.80557129 -1.68912109 17.29913086 -2.78515625 16.77734375 C-3.72238525 16.33640381 -4.65961426 15.89546387 -5.62524414 15.44116211 C-8.20146995 13.87773444 -9.51326831 12.61212876 -11 10 C-10.87988224 6.57664374 -10.60726153 4.04583931 -8.875 1.0625 C-5.90098411 -0.62277567 -3.2815764 -0.54361109 0 0 Z " fill="#F3E581" transform="translate(259,155)"/>
<path d="M0 0 C0.74958984 0.00451172 1.49917969 0.00902344 2.27148438 0.01367188 C4.11852383 0.02543646 5.96552213 0.04337135 7.8125 0.0625 C6.64700086 3.55899743 5.48104823 3.95193093 2.5 5.84375 C-3.1480423 9.92289166 -6.47768552 15.34228308 -8.1875 22.0625 C-8.64779965 26.69666299 -8.67582087 31.31424879 -8.69921875 35.96875 C-8.71609218 37.30254745 -8.73424595 38.63632925 -8.75361633 39.97009277 C-8.80083418 43.45519113 -8.83082472 46.94022605 -8.85705566 50.42553711 C-8.88700496 53.99215215 -8.93348531 57.55854913 -8.97851562 61.125 C-9.0642269 68.10405638 -9.13018322 75.0831532 -9.1875 82.0625 C-15.4575 82.0625 -21.7275 82.0625 -28.1875 82.0625 C-28.23284148 74.76879977 -28.26946799 67.47517769 -28.29112434 60.18136597 C-28.30152286 56.79387132 -28.31560933 53.40647884 -28.33837891 50.01904297 C-28.36272296 46.11683486 -28.37400525 42.21477037 -28.3828125 38.3125 C-28.39313507 37.10698486 -28.40345764 35.90146973 -28.41409302 34.65942383 C-28.41550788 23.9766521 -27.09418598 15.61480255 -19.8125 7.375 C-13.26546564 1.60737449 -8.58431826 -0.09746388 0 0 Z " fill="#F1CB85" transform="translate(379.1875,367.9375)"/>
<path d="M0 0 C0 6.6 0 13.2 0 20 C-6.5516094 22.76828566 -11.88137283 24.41808285 -19 26 C-19 19.4 -19 12.8 -19 6 C-15.1328125 4.515 -15.1328125 4.515 -11.1875 3 C-10.37949951 2.68675781 -9.57149902 2.37351563 -8.73901367 2.05078125 C-8.09681885 1.80714844 -7.45462402 1.56351563 -6.79296875 1.3125 C-6.1383667 1.06113281 -5.48376465 0.80976563 -4.80932617 0.55078125 C-3 0 -3 0 0 0 Z " fill="#2B4D66" transform="translate(407,218)"/>
</svg>
